<?xml version="1.0" standalone="no"?>
<!DOCTYPE svg PUBLIC "-//W3C//DTD SVG 20010904//EN"
 "http://www.w3.org/TR/2001/REC-SVG-20010904/DTD/svg10.dtd">
<svg version="1.0" xmlns="http://www.w3.org/2000/svg"
 width="353.000000pt" height="353.000000pt" viewBox="0 0 353.000000 353.000000"
 preserveAspectRatio="xMidYMid meet">
<metadata>
Created by potrace 1.11, written by Peter Selinger 2001-2013
</metadata>
<g transform="translate(0.000000,353.000000) scale(0.100000,-0.100000)"
fill="#000000" stroke="none">
<path d="M1295 2983 l-58 -56 -1 -73 -1 -74 40 -5 c22 -4 51 -2 65 3 54 21
109 117 95 163 -6 17 -9 19 -17 8 -6 -10 -7 -7 -3 9 5 18 0 31 -21 53 -15 16
-31 29 -35 29 -4 0 -33 -25 -64 -57z m80 7 c3 -5 1 -10 -4 -10 -6 0 -11 5 -11
10 0 6 2 10 4 10 3 0 8 -4 11 -10z"/>
<path d="M2227 3009 c-33 -38 -51 -119 -27 -119 6 0 10 -4 10 -9 0 -4 -24 -4
-52 0 -65 11 -109 4 -170 -27 -56 -28 -81 -59 -104 -126 -35 -107 15 -226 118
-279 49 -25 148 -25 204 0 85 39 146 157 126 244 -6 23 -14 52 -17 63 -6 19
-3 22 22 23 15 0 36 1 45 1 9 1 31 15 49 32 l32 31 -98 93 c-54 52 -103 94
-109 94 -7 0 -20 -9 -29 -21z m48 -39 c3 -5 1 -10 -4 -10 -6 0 -11 5 -11 10 0
6 2 10 4 10 3 0 8 -4 11 -10z"/>
<path d="M1425 2797 c-48 -19 -75 -40 -75 -60 0 -10 -4 -16 -9 -13 -5 3 -12
-1 -15 -10 -10 -25 -7 -94 4 -94 5 0 7 -7 4 -15 -5 -13 7 -15 74 -15 51 0 90
-5 108 -15 40 -21 47 -19 68 17 25 41 24 112 -2 147 -21 29 -89 71 -112 70 -8
0 -28 -6 -45 -12z m-68 -93 c-3 -3 -12 -4 -19 -1 -8 3 -5 6 6 6 11 1 17 -2 13
-5z m230 -51 c-3 -10 -5 -2 -5 17 0 19 2 27 5 18 2 -10 2 -26 0 -35z"/>
<path d="M1915 2389 c-51 -14 -108 -71 -128 -127 -18 -48 -18 -74 -1 -133 3
-12 -5 -20 -24 -27 -51 -18 -101 -70 -116 -123 -49 -165 131 -300 279 -209 54
34 90 113 82 186 -5 44 -3 54 10 54 32 0 108 53 126 87 21 42 32 112 23 149
-7 25 -8 26 -22 8 -14 -18 -14 -18 -4 4 13 27 1 54 -43 91 -56 49 -111 61
-182 40z m-20 -269 c3 -6 -1 -7 -9 -4 -18 7 -21 14 -7 14 6 0 13 -4 16 -10z"/>
<path d="M569 2283 c-60 -59 -109 -112 -109 -118 0 -17 51 -62 83 -74 41 -16
87 -13 133 8 71 32 106 108 90 195 -7 36 -55 96 -77 96 -6 0 -61 -48 -120
-107z"/>
<path d="M2911 2354 c-90 -115 -7 -274 145 -274 39 0 127 56 116 75 -8 15
-221 219 -232 223 -4 2 -17 -9 -29 -24z"/>
<path d="M894 2274 c-69 -47 -84 -90 -58 -165 18 -49 50 -73 110 -85 38 -7
100 19 116 50 6 11 16 24 22 28 16 10 14 110 -1 116 -7 2 -13 9 -13 15 0 20
-80 67 -115 67 -12 0 -40 -12 -61 -26z"/>
<path d="M2641 2253 c-66 -33 -93 -125 -51 -173 11 -13 20 -26 20 -30 0 -12
50 -30 86 -30 68 0 131 71 121 136 -8 47 -35 83 -75 99 -44 19 -59 18 -101 -2z
m66 -9 c-3 -3 -12 -4 -19 -1 -8 3 -5 6 6 6 11 1 17 -2 13 -5z m1 -211 c-10 -2
-26 -2 -35 0 -10 3 -2 5 17 5 19 0 27 -2 18 -5z"/>
<path d="M2345 2159 c-62 -36 -73 -107 -26 -158 87 -93 228 32 148 132 -25 32
-88 45 -122 26z"/>
<path d="M695 1999 c-47 -13 -84 -58 -94 -114 -5 -27 -14 -51 -20 -53 -7 -2
-11 -54 -11 -152 0 -145 0 -148 24 -164 63 -41 162 -28 219 29 45 45 61 92 53
158 -7 60 -8 79 -4 164 3 56 1 64 -26 92 -17 17 -46 36 -65 41 -41 11 -36 11
-76 -1z"/>
<path d="M2870 1999 c-67 -27 -94 -104 -60 -173 20 -42 20 -47 6 -75 -9 -16
-16 -54 -16 -83 0 -67 32 -117 93 -147 49 -24 66 -25 120 -10 l38 10 -4 157
c-3 86 -5 176 -5 200 -2 96 -86 155 -172 121z"/>
<path d="M1419 1988 c-37 -15 -74 -74 -74 -118 0 -66 61 -124 128 -122 64 2
138 88 123 145 -9 36 -46 78 -82 93 -38 16 -58 16 -95 2z m-23 -56 c-17 -16
-18 -16 -5 5 7 12 15 20 18 17 3 -2 -3 -12 -13 -22z m139 8 c3 -5 1 -10 -4
-10 -6 0 -11 5 -11 10 0 6 2 10 4 10 3 0 8 -4 11 -10z m-168 -87 c-3 -10 -5
-2 -5 17 0 19 2 27 5 18 2 -10 2 -26 0 -35z m128 -43 c3 -6 -1 -7 -9 -4 -18 7
-21 14 -7 14 6 0 13 -4 16 -10z"/>
<path d="M2343 1838 c-39 -28 -63 -73 -63 -121 0 -53 9 -67 41 -67 33 0 69
-31 69 -60 0 -16 7 -20 36 -20 146 0 200 190 78 271 -42 27 -120 25 -161 -3z"/>
<path d="M1190 1743 c-31 -11 -70 -58 -76 -90 -14 -73 38 -133 116 -133 40 0
52 5 79 32 26 26 31 40 31 78 0 54 -20 87 -66 106 -34 14 -58 16 -84 7z"/>
<path d="M1852 1674 c-40 -18 -90 -71 -98 -104 -3 -14 -9 -35 -14 -46 -15 -38
31 -160 57 -150 7 3 10 -1 7 -9 -4 -9 10 -22 38 -36 110 -57 235 -1 277 125
10 30 11 47 1 82 -7 24 -16 41 -21 38 -5 -3 -6 2 -3 10 9 22 -57 83 -103 95
-51 14 -101 13 -141 -5z"/>
<path d="M864 1490 c-40 -26 -58 -69 -51 -116 8 -47 31 -72 78 -84 65 -18 125
20 136 85 15 94 -87 165 -163 115z m-22 -129 c2 -17 1 -28 -4 -25 -8 5 -12 54
-4 54 2 0 6 -13 8 -29z"/>
<path d="M2658 1481 c-29 -26 -33 -35 -33 -80 0 -41 5 -55 26 -77 56 -56 154
-34 179 41 15 44 8 74 -26 114 -22 26 -33 31 -70 31 -34 0 -51 -6 -76 -29z
m137 -21 c3 -5 1 -10 -4 -10 -6 0 -11 5 -11 10 0 6 2 10 4 10 3 0 8 -4 11 -10z
m22 -52 c-3 -8 -6 -5 -6 6 -1 11 2 17 5 13 3 -3 4 -12 1 -19z"/>
<path d="M635 1385 c-5 -2 -22 -6 -37 -9 l-27 -6 2 -155 c1 -107 6 -158 14
-166 7 -7 35 -13 63 -13 60 0 122 38 152 94 23 41 20 118 -6 169 -26 49 -118
98 -161 86z m28 -22 c-7 -2 -19 -2 -25 0 -7 3 -2 5 12 5 14 0 19 -2 13 -5z
m-66 -210 c-2 -38 -3 -7 -3 67 0 74 1 105 3 68 2 -38 2 -98 0 -135z m33 -77
c0 -2 -7 -7 -16 -10 -8 -3 -12 -2 -9 4 6 10 25 14 25 6z"/>
<path d="M2900 1348 c-50 -34 -72 -71 -78 -128 -6 -68 21 -133 52 -125 17 5
18 4 6 -4 -13 -9 -12 -12 5 -25 54 -42 148 -43 159 -3 8 29 7 256 0 285 -6 19
-13 22 -59 22 -38 0 -61 -6 -85 -22z m83 -295 c-7 -2 -19 -2 -25 0 -7 3 -2 5
12 5 14 0 19 -2 13 -5z"/>
<path d="M1025 1305 c-30 -30 -32 -64 -4 -99 27 -34 71 -35 104 -1 14 13 25
36 25 50 0 14 -11 37 -25 50 -13 14 -36 25 -50 25 -14 0 -37 -11 -50 -25z"/>
<path d="M2505 1307 c-56 -48 -27 -127 46 -127 45 0 69 27 69 76 0 34 -22 59
-61 69 -20 5 -33 0 -54 -18z"/>
<path d="M2144 1195 c-7 -18 3 -35 21 -35 15 0 28 27 19 41 -8 14 -34 11 -40
-6z"/>
<path d="M1215 1064 c-14 -15 -25 -38 -25 -51 0 -29 50 -83 78 -83 24 0 68 38
76 66 8 26 -3 56 -17 47 -6 -4 -7 -1 -3 6 11 17 -22 40 -57 41 -18 0 -37 -10
-52 -26z m39 -2 c3 -5 -1 -9 -9 -9 -8 0 -12 4 -9 9 3 4 7 8 9 8 2 0 6 -4 9 -8z
m-1 -77 c-3 -9 -8 -14 -10 -11 -3 3 -2 9 2 15 9 16 15 13 8 -4z"/>
<path d="M2326 1068 c-35 -32 -39 -58 -16 -96 15 -24 27 -32 49 -32 43 0 60 9
76 41 18 34 8 69 -27 93 -31 22 -52 20 -82 -6z"/>
<path d="M570 865 c0 -69 2 -75 20 -75 25 0 70 42 70 65 0 38 -40 84 -72 85
-16 0 -18 -10 -18 -75z"/>
<path d="M746 743 c-4 -9 0 -23 9 -32 13 -14 17 -14 30 0 19 19 10 49 -15 49
-10 0 -21 -8 -24 -17z"/>
<path d="M1090 739 c-61 -24 -84 -82 -56 -138 49 -95 188 -64 188 43 0 39 -15
72 -40 84 -31 16 -67 20 -92 11z"/>
<path d="M2486 735 c-42 -22 -55 -44 -56 -93 0 -74 70 -120 136 -88 45 21 71
73 58 117 -17 58 -87 91 -138 64z"/>
<path d="M2843 734 c-6 -16 11 -34 33 -34 14 0 26 28 18 41 -9 15 -44 10 -51
-7z"/>
<path d="M2101 641 c-72 -68 3 -177 90 -130 11 5 16 15 13 21 -4 7 -3 8 4 4
12 -7 32 23 32 48 0 23 -51 73 -82 80 -20 5 -33 -1 -57 -23z m33 -9 c3 -5 -1
-9 -9 -9 -8 0 -12 4 -9 9 3 4 7 8 9 8 2 0 6 -4 9 -8z m0 -107 c11 -8 16 -15
10 -15 -5 0 -18 7 -28 15 -11 8 -16 15 -10 15 5 0 18 -7 28 -15z"/>
<path d="M1035 398 c-45 -17 -81 -71 -69 -103 9 -22 204 -22 204 0 0 33 -34
83 -67 99 -18 9 -35 16 -36 15 -1 0 -15 -5 -32 -11z"/>
<path d="M2528 393 c-30 -19 -52 -61 -46 -90 3 -16 15 -18 95 -21 l92 -3 3 28
c5 41 -11 70 -47 88 -42 19 -63 19 -97 -2z m-27 -86 c-10 -9 -11 -8 -5 6 3 10
9 15 12 12 3 -3 0 -11 -7 -18z"/>
</g>
</svg>
